<?xml version="1.0" standalone="no"?>
<!DOCTYPE svg PUBLIC "-//W3C//DTD SVG 20010904//EN"
 "http://www.w3.org/TR/2001/REC-SVG-20010904/DTD/svg10.dtd">
<svg version="1.0" xmlns="http://www.w3.org/2000/svg"
 width="192.000000pt" height="192.000000pt" viewBox="0 0 192.000000 192.000000"
 preserveAspectRatio="xMidYMid meet">

<g transform="translate(0.000000,192.000000) scale(0.100000,-0.100000)"
fill="#000000" stroke="none">
<path d="M801 1769 c-80 -14 -227 -65 -299 -105 -191 -107 -326 -269 -398
-479 -26 -72 -28 -94 -29 -220 0 -120 3 -151 23 -215 84 -267 284 -469 553
-558 215 -71 403 -71 618 0 214 71 393 220 490 408 68 131 86 205 86 360 0
114 -4 147 -23 210 -84 267 -284 469 -553 558 -52 17 -123 36 -159 41 -76 13
-232 12 -309 0z m-55 -417 c59 -30 103 -78 133 -142 22 -48 26 -68 25 -160 -1
-236 -95 -415 -262 -497 -74 -37 -79 -38 -186 -38 -101 0 -116 2 -168 28 -109
54 -158 146 -158 300 0 163 48 300 141 401 57 63 96 89 171 117 75 28 244 23
304 -9z m504 13 c0 -3 -16 -80 -36 -171 -19 -91 -34 -168 -31 -170 2 -2 22 26
45 62 24 36 82 115 130 174 l87 109 134 0 c106 1 131 -2 123 -11 -6 -7 -78
-96 -160 -197 l-150 -183 79 -229 78 -229 -127 0 -127 0 -49 165 c-27 91 -54
165 -60 165 -37 -1 -51 -33 -82 -178 l-30 -147 -112 -3 c-62 -1 -112 0 -112 4
0 9 170 817 175 832 3 8 35 12 115 12 60 0 110 -2 110 -5z"/>
<path d="M520 1189 c-88 -35 -162 -191 -163 -343 -1 -77 18 -116 65 -139 123
-60 257 115 258 335 0 118 -70 182 -160 147z"/>
</g>
</svg>
